{
  "accessors": [
    {
      "bufferView": 2,
      "componentType": 5126,
      "count": 408,
      "max": [
        0.016320299357175827,
        1.0,
        0.1388069987297058
      ],
      "min": [
        -0.07118009775876999,
        -0.9881929755210876,
        -0.2940469980239868
      ],
      "type": "VEC3"
    },
    {
      "bufferView": 2,
      "byteOffset": 4896,
      "componentType": 5126,
      "count": 408,
      "max": [
        0.9994651079177856,
        0.6645912528038025,
        0.9914641380310059
      ],
      "min": [
        -0.9994651079177856,
        -0.9008907675743103,
        -0.9909659028053284
      ],
      "type": "VEC3"
    },
    {
      "bufferView": 3,
      "componentType": 5126,
      "count": 408,
      "max": [
        0.9993681907653809,
        0.996074378490448,
        0.3894454538822174,
        1.0
      ],
      "min": [
        -0.9993773698806763,
        -0.9946393966674805,
        -0.4991636574268341,
        -1.0
      ],
      "type": "VEC4"
    },
    {
      "bufferView": 1,
      "componentType": 5126,
      "count": 408,
      "max": [
        0.9828979969024658,
        0.3195819854736328
      ],
      "min": [
        0.010737000033259392,
        0.00877929013222456
      ],
      "type": "VEC2"
    },
    {
      "bufferView": 0,
      "componentType": 5125,
      "count": 1536,
      "type": "SCALAR"
    },
    {
      "bufferView": 2,
      "byteOffset": 9792,
      "componentType": 5126,
      "count": 1088,
      "max": [
        0.4033240079879761,
        0.05077439919114113,
        0.4023840129375458
      ],
      "min": [
        -0.4033240079879761,
        0.040925100445747375,
        -0.4023840129375458
      ],
      "type": "VEC3"
    },
    {
      "bufferView": 2,
      "byteOffset": 22848,
      "componentType": 5126,
      "count": 1088,
      "max": [
        0.9674281477928162,
        1.0,
        0.9794301390647888
      ],
      "min": [
        -0.9882266521453857,
        -1.0,
        -0.9794309735298157
      ],
      "type": "VEC3"
    },
    {
      "bufferView": 3,
      "byteOffset": 6528,
      "componentType": 5126,
      "count": 1088,
      "max": [
        1.0,
        0.9882267117500305,
        0.8845041394233704,
        1.0
      ],
      "min": [
        -0.4041161835193634,
        -0.9674275517463684,
        -0.8858474493026733,
        -1.0
      ],
      "type": "VEC4"
    },
    {
      "bufferView": 1,
      "byteOffset": 3264,
      "componentType": 5126,
      "count": 1088,
      "max": [
        0.9952600002288818,
        0.9892370104789734
      ],
      "min": [
        0.2695299983024597,
        0.2651990056037903
      ],
      "type": "VEC2"
    },
    {
      "bufferView": 0,
      "byteOffset": 6144,
      "componentType": 5125,
      "count": 6144,
      "type": "SCALAR"
    },
    {
      "bufferView": 2,
      "byteOffset": 35904,
      "componentType": 5126,
      "count": 51512,
      "max": [
        0.2535429894924164,
        -0.7504079937934875,
        0.2545439898967743
      ],
      "min": [
        -0.2563999891281128,
        -0.9953939914703369,
        -0.25404900312423706
      ],
      "type": "VEC3"
    },
    {
      "bufferView": 2,
      "byteOffset": 654048,
      "componentType": 5126,
      "count": 51512,
      "max": [
        1.0,
        1.0,
        1.0
      ],
      "min": [
        -1.0,
        -1.0,
        -1.0
      ],
      "type": "VEC3"
    },
    {
      "bufferView": 3,
      "byteOffset": 23936,
      "componentType": 5126,
      "count": 51512,
      "max": [
        0.9998931884765625,
        0.9477375149726868,
        0.999984860420227,
        1.0
      ],
      "min": [
        -0.9999473094940186,
        -0.9727723598480225,
        -0.9999067187309265,
        1.0
      ],
      "type": "VEC4"
    },
    {
      "bufferView": 1,
      "byteOffset": 11968,
      "componentType": 5126,
      "count": 51512,
      "max": [
        0.330500990152359,
        0.9286090135574341
      ],
      "min": [
        0.005255740135908127,
        0.6067129969596863
      ],
      "type": "VEC2"
    },
    {
      "bufferView": 0,
      "byteOffset": 30720,
      "componentType": 5125,
      "count": 270720,
      "type": "SCALAR"
    },
    {
      "bufferView": 2,
      "byteOffset": 1272192,
      "componentType": 5126,
      "count": 778,
      "max": [
        0.3410249948501587,
        -0.048666998744010925,
        0.3422439992427826
      ],
      "min": [
        -0.3430339992046356,
        -0.9962130188941956,
        -0.3418160080909729
      ],
      "type": "VEC3"
    },
    {
      "bufferView": 2,
      "byteOffset": 1281528,
      "componentType": 5126,
      "count": 778,
      "max": [
        0.9957323670387268,
        1.0,
        0.9957323670387268
      ],
      "min": [
        -0.9957323670387268,
        -1.0,
        -0.9957323670387268
      ],
      "type": "VEC3"
    },
    {
      "bufferView": 3,
      "byteOffset": 848128,
      "componentType": 5126,
      "count": 778,
      "max": [
        0.9999991655349731,
        0.024530276656150818,
        0.9999991655349731,
        1.0
      ],
      "min": [
        -0.9999991655349731,
        -0.024524064734578133,
        -0.9999991655349731,
        -1.0
      ],
      "type": "VEC4"
    },
    {
      "bufferView": 1,
      "byteOffset": 424064,
      "componentType": 5126,
      "count": 778,
      "max": [
        0.9878230094909668,
        0.984408974647522
      ],
      "min": [
        0.033149801194667816,
        0.006965649779886007
      ],
      "type": "VEC2"
    },
    {
      "bufferView": 0,
      "byteOffset": 1113600,
      "componentType": 5125,
      "count": 2292,
      "type": "SCALAR"
    },
    {
      "bufferView": 2,
      "byteOffset": 1290864,
      "componentType": 5126,
      "count": 2670,
      "max": [
        0.3835960030555725,
        0.049601200968027115,
        0.3847300112247467
      ],
      "min": [
        -0.3855069875717163,
        -1.0,
        -0.3843730092048645
      ],
      "type": "VEC3"
    },
    {
      "bufferView": 2,
      "byteOffset": 1322904,
      "componentType": 5126,
      "count": 2670,
      "max": [
        1.0,
        1.0,
        1.0
      ],
      "min": [
        -1.0,
        -1.0,
        -1.0
      ],
      "type": "VEC3"
    },
    {
      "bufferView": 3,
      "byteOffset": 860576,
      "componentType": 5126,
      "count": 2670,
      "max": [
        1.0,
        0.9999454021453857,
        1.0,
        1.0
      ],
      "min": [
        -1.0,
        -0.7150969505310059,
        -1.0,
        -1.0
      ],
      "type": "VEC4"
    },
    {
      "bufferView": 1,
      "byteOffset": 430288,
      "componentType": 5126,
      "count": 2670,
      "max": [
        0.9859610199928284,
        0.9856899976730347
      ],
      "min": [
        0.013216899707913399,
        0.010676099918782711
      ],
      "type": "VEC2"
    },
    {
      "bufferView": 0,
      "byteOffset": 1122768,
      "componentType": 5125,
      "count": 8436,
      "type": "SCALAR"
    }
  ],
  "asset": {
    "extras": {
      "author": "Enshin (https://sketchfab.com/enshin)",
      "license": "CC-BY-4.0 (http://creativecommons.org/licenses/by/4.0/)",
      "source": "https://sketchfab.com/3d-models/cupped-pearl-milk-tea-e3f056696c2d4893bae2b65467b5bcc8",
      "title": "タピオカ・ミルクティー(Cupped Pearl Milk Tea)"
    },
    "generator": "Sketchfab-12.66.0",
    "version": "2.0"
  },
  "bufferViews": [
    {
      "buffer": 0,
      "byteLength": 1156512,
      "name": "floatBufferViews",
      "target": 34963
    },
    {
      "buffer": 0,
      "byteLength": 451648,
      "byteOffset": 1156512,
      "byteStride": 8,
      "name": "floatBufferViews",
      "target": 34962
    },
    {
      "buffer": 0,
      "byteLength": 1354944,
      "byteOffset": 1608160,
      "byteStride": 12,
      "name": "floatBufferViews",
      "target": 34962
    },
    {
      "buffer": 0,
      "byteLength": 903296,
      "byteOffset": 2963104,
      "byteStride": 16,
      "name": "floatBufferViews",
      "target": 34962
    }
  ],
  "buffers": [
    {
      "byteLength": 3866400,
      "uri": "scene.bin"
    }
  ],
  "images": [
    {
      "uri": "textures/bottle_baseColor.png"
    },
    {
      "uri": "textures/bottle_metallicRoughness.png"
    },
    {
      "uri": "textures/bottle_normal.png"
    },
    {
      "uri": "textures/nakami_baseColor.png"
    },
    {
      "uri": "textures/nakami_metallicRoughness.png"
    },
    {
      "uri": "textures/nakami_normal.png"
    },
    {
      "uri": "textures/huta_strow_baseColor.jpeg"
    },
    {
      "uri": "textures/huta_strow_metallicRoughness.png"
    },
    {
      "uri": "textures/huta_strow_normal.png"
    }
  ],
  "materials": [
    {
      "alphaMode": "BLEND",
      "doubleSided": true,
      "name": "bottle",
      "normalTexture": {
        "index": 2
      },
      "occlusionTexture": {
        "index": 1
      },
      "pbrMetallicRoughness": {
        "baseColorTexture": {
          "index": 0
        },
        "metallicRoughnessTexture": {
          "index": 1
        }
      }
    },
    {
      "alphaMode": "BLEND",
      "doubleSided": true,
      "name": "nakami",
      "normalTexture": {
        "index": 5
      },
      "occlusionTexture": {
        "index": 4
      },
      "pbrMetallicRoughness": {
        "baseColorTexture": {
          "index": 3
        },
        "metallicRoughnessTexture": {
          "index": 4
        }
      }
    },
    {
      "doubleSided": true,
      "name": "huta_strow",
      "normalTexture": {
        "index": 8
      },
      "occlusionTexture": {
        "index": 7
      },
      "pbrMetallicRoughness": {
        "baseColorTexture": {
          "index": 6
        },
        "metallicRoughnessTexture": {
          "index": 7
        }
      }
    }
  ],
  "meshes": [
    {
      "name": "defaultMaterial",
      "primitives": [
        {
          "attributes": {
            "NORMAL": 1,
            "POSITION": 0,
            "TANGENT": 2,
            "TEXCOORD_0": 3
          },
          "indices": 4,
          "material": 2,
          "mode": 4
        }
      ]
    },
    {
      "name": "defaultMaterial",
      "primitives": [
        {
          "attributes": {
            "NORMAL": 6,
            "POSITION": 5,
            "TANGENT": 7,
            "TEXCOORD_0": 8
          },
          "indices": 9,
          "material": 2,
          "mode": 4
        }
      ]
    },
    {
      "name": "defaultMaterial",
      "primitives": [
        {
          "attributes": {
            "NORMAL": 11,
            "POSITION": 10,
            "TANGENT": 12,
            "TEXCOORD_0": 13
          },
          "indices": 14,
          "material": 1,
          "mode": 4
        }
      ]
    },
    {
      "name": "defaultMaterial",
      "primitives": [
        {
          "attributes": {
            "NORMAL": 16,
            "POSITION": 15,
            "TANGENT": 17,
            "TEXCOORD_0": 18
          },
          "indices": 19,
          "material": 1,
          "mode": 4
        }
      ]
    },
    {
      "name": "defaultMaterial",
      "primitives": [
        {
          "attributes": {
            "NORMAL": 21,
            "POSITION": 20,
            "TANGENT": 22,
            "TEXCOORD_0": 23
          },
          "indices": 24,
          "material": 0,
          "mode": 4
        }
      ]
    }
  ],
  "nodes": [
    {
      "children": [
        1
      ],
      "matrix": [
        1.0,
        0.0,
        0.0,
        0.0,
        0.0,
        2.220446049250313e-16,
        -1.0,
        0.0,
        0.0,
        1.0,
        2.220446049250313e-16,
        0.0,
        0.0,
        0.0,
        0.0,
        1.0
      ],
      "name": "Sketchfab_model"
    },
    {
      "children": [
        2,
        4,
        6,
        8,
        10
      ],
      "matrix": [
        1.0,
        0.0,
        0.0,
        0.0,
        0.0,
        -4.371139006309477e-08,
        0.999999999999999,
        0.0,
        0.0,
        -0.999999999999999,
        -4.371139006309477e-08,
        0.0,
        0.0,
        0.0,
        0.0,
        1.0
      ],
      "name": "Collada visual scene group"
    },
    {
      "children": [
        3
      ],
      "name": "strow"
    },
    {
      "mesh": 0,
      "name": "defaultMaterial"
    },
    {
      "children": [
        5
      ],
      "name": "huta"
    },
    {
      "mesh": 1,
      "name": "defaultMaterial"
    },
    {
      "children": [
        7
      ],
      "name": "pearl"
    },
    {
      "mesh": 2,
      "name": "defaultMaterial"
    },
    {
      "children": [
        9
      ],
      "name": "milktea"
    },
    {
      "mesh": 3,
      "name": "defaultMaterial"
    },
    {
      "children": [
        11
      ],
      "name": "bottle"
    },
    {
      "mesh": 4,
      "name": "defaultMaterial"
    }
  ],
  "samplers": [
    {
      "magFilter": 9729,
      "minFilter": 9987,
      "wrapS": 10497,
      "wrapT": 10497
    }
  ],
  "scene": 0,
  "scenes": [
    {
      "name": "Sketchfab_Scene",
      "nodes": [
        0
      ]
    }
  ],
  "textures": [
    {
      "sampler": 0,
      "source": 0
    },
    {
      "sampler": 0,
      "source": 1
    },
    {
      "sampler": 0,
      "source": 2
    },
    {
      "sampler": 0,
      "source": 3
    },
    {
      "sampler": 0,
      "source": 4
    },
    {
      "sampler": 0,
      "source": 5
    },
    {
      "sampler": 0,
      "source": 6
    },
    {
      "sampler": 0,
      "source": 7
    },
    {
      "sampler": 0,
      "source": 8
    }
  ]
}
